<mxfile host="app.diagrams.net" modified="2023-10-09T01:08:10.668Z" agent="Mozilla/5.0 (Windows NT 10.0; Win64; x64) AppleWebKit/537.36 (KHTML, like Gecko) Chrome/117.0.0.0 Safari/537.36" version="22.0.4" etag="rRqw8f7kgtkx09LCW7k7" type="github">
  <diagram name="Page-1" id="XhIioP-wKU1lPiDBbfsX">
    <mxGraphModel>
      <root>
        <mxCell id="0" />
        <mxCell id="1" parent="0" />
      </root>
    </mxGraphModel>
  </diagram>
</mxfile>
